<svg height="200px" width="200px" version="1.1" id="_x32_" xmlns="http://www.w3.org/2000/svg" xmlns:xlink="http://www.w3.org/1999/xlink" viewBox="0 0 512 512" xml:space="preserve" fill="#ffffff" stroke="#ffffff"><g id="SVGRepo_bgCarrier" stroke-width="0"></g><g id="SVGRepo_tracerCarrier" stroke-linecap="round" stroke-linejoin="round"></g><g id="SVGRepo_iconCarrier"> <style type="text/css"> .st0{fill:#ffffff;} </style> <g> <path class="st0" d="M432.418,173.569c-74.564-23.921-87.878-29.468-114.427-40.798c-27.654-11.817-23.874-34.315-15.746-43.692 c-38.148,0-70.07,47.909-16.599,78.862c45.072,26.1,48.601,28.032,68.934,39.394c40.557,22.665,19.409,41.28-9.384,44.708 c-2.848-2.593-6.51-5.334-11.403-5.854c-5.28-0.555-12.993,5.092-19.383,4.377c-5.588-0.621-9.638-7.579-15.734-8.281 c-4.799-0.548-11.814,4.17-17.468,5.334c-1.925-0.214-3.85-0.428-5.762-0.649c-4.237-2.292-7.045-8.201-11.937-8.776 c-5.026-0.594-12.178,4.144-17.712,5.28c-1.938-0.234-3.85-0.468-5.721-0.695c-4.385-2.34-7.098-8.221-11.697-8.769 c-5.307-0.642-12.272,3.716-17.418,5.08c-10.347-1.344-16.776-2.213-16.776-2.213c-8.555,0-44.835-31.487-58.898-7.105 c-10.908,18.902-37.523,15.012-37.523,15.012l-62.56-13.528c0,0-14.063-14.076-28.059-0.013 c-15.159,15.232-1.484,32.296-1.484,32.296l12.872,4.064c0.522,5.534,1.778,13.234,4.879,18.915c1.11,3.769,8.141,9.477,8.956-0.2 c0.454-5.227,2.112-9.966,3.543-13.228l12.673,3.997c0.694,4.872,1.992,10.474,4.397,14.858c1.11,3.77,8.141,9.478,8.956-0.2 c0.307-3.582,1.19-6.938,2.166-9.759l14.41,4.552c0.762,4.23,1.992,8.762,4.01,12.445c1.11,3.77,8.141,9.478,8.956-0.201 c0.241-2.746,0.816-5.34,1.51-7.679l20.733,6.55c0.749,2.874,1.752,5.708,3.088,8.168c1.11,3.769,8.141,9.477,8.956-0.2 c0.12-1.37,0.334-2.701,0.588-3.984l66.397,20.954l-69.779,7.706c-0.348-1.584-0.615-3.261-0.762-5.006 c-0.762-9.511-7.071-3.656-8.074,0.094c-0.909,1.885-1.645,3.983-2.233,6.142l-19.262,2.126c-0.602-2.213-1.097-4.666-1.311-7.259 c-0.762-9.511-7.072-3.656-8.074,0.094c-1.244,2.567-2.165,5.534-2.82,8.515l-13.849,1.524c-0.842-2.66-1.591-5.802-1.858-9.177 c-0.775-9.511-7.084-3.656-8.074,0.1c-1.537,3.142-2.566,6.891-3.248,10.541l-12.792,1.41c-1.096-3.008-2.179-6.878-2.513-11.095 c-0.775-9.518-7.085-3.662-8.074,0.094c-1.832,3.736-2.927,8.314-3.609,12.565l-12.967,1.438l6.043,14.818 c3.261,8.014,11.055,13.254,19.704,13.254c0,0,97.209,0,208.467,0l-0.494,9.083c0,0-14.986-0.047-18.928,10.193 c-0.014,2.567,14.944,5.18,14.944,5.18s-9.491,8.569-7.406,14.578c1.283,3.736,20.158-4.184,20.158-4.184 s-7.967,16.756-1.43,16.341c4.719-0.294,16.764-8.414,16.764-8.414s0.708,9.624,5.841,9.671c6.55,0.06,12.285-24.489,12.285-24.489 s1.764-13.28,3.766-27.958c36.146,0,72.586,0,106.634,0c13.742,0,26.28-1.718,37.59-4.819l-0.736,13.902 c0,0-14.998-0.047-18.941,10.193c-0.014,2.567,14.945,5.18,14.945,5.18s-9.492,8.569-7.406,14.578 c1.297,3.736,20.158-4.184,20.158-4.184s-7.966,16.756-1.43,16.341c4.718-0.294,16.776-8.414,16.776-8.414s0.695,9.624,5.828,9.671 c6.55,0.06,12.285-24.489,12.285-24.489s6.483-48.471,8.569-62.607C532.02,286.973,517.196,200.759,432.418,173.569z"></path> </g> </g></svg>