<?xml version="1.0" encoding="iso-8859-1"?>
<!-- Uploaded to: SVG Repo, www.svgrepo.com, Generator: SVG Repo Mixer Tools -->
<svg version="1.1" id="Layer_1" xmlns="http://www.w3.org/2000/svg" xmlns:xlink="http://www.w3.org/1999/xlink" 
	 viewBox="0 0 512 512" xml:space="preserve">
<path style="fill:#95D5A7;" d="M512,214.552c0-60.593-49.12-109.714-109.714-109.714v-1.219c0-40.396-32.747-73.143-73.143-73.143
	S256,63.223,256,103.619c0-40.396-32.747-73.143-73.143-73.143s-73.143,32.747-73.143,73.143v1.219
	C49.12,104.838,0,153.96,0,214.552c0,58.798,46.256,106.792,104.364,109.584c0.011,0.043,0.021,0.087,0.03,0.13
	c3.546,16.255,7.091,32.507,10.639,48.762c15.077,60.594,65.092,109.714,111.71,109.714c19.505,0,39.01,0,58.514,0
	c46.616-0.002,96.634-49.122,111.71-109.714c3.545-16.255,7.092-32.507,10.639-48.762c0.011-0.044,0.02-0.088,0.03-0.13
	C465.744,321.345,512,273.351,512,214.552z"/>
<path style="fill:#80CB93;" d="M402.286,103.619V102.4c0-40.396-32.747-73.143-73.143-73.143S256,62.004,256,102.4v379.124
	c9.752,0,19.505,0,29.257,0c46.616-0.002,96.634-49.122,111.71-109.714c3.545-16.255,7.092-32.507,10.639-48.762
	c0.011-0.044,0.02-0.088,0.03-0.13C465.744,320.126,512,272.132,512,213.333C512,152.741,462.88,103.619,402.286,103.619z"/>
<path style="fill:#58575D;" d="M182.857,128h-0.005c-13.44,0-24.376-10.937-24.376-24.381c0.005-13.446,10.942-24.381,24.381-24.381
	c13.444,0,24.381,10.937,24.381,24.381S196.301,128,182.857,128z"/>
<path style="fill:#454449;" d="M329.143,128h-0.005c-13.44,0-24.376-10.937-24.376-24.381c0.005-13.446,10.942-24.381,24.381-24.381
	c13.444,0,24.381,10.937,24.381,24.381S342.587,128,329.143,128z"/>
<g>
	<path style="fill:#80CB93;" d="M322.515,227.073c-19.981-12.178-42.981-18.616-66.515-18.616c-23.534,0-46.533,6.438-66.515,18.616
		l-19.035-31.226c25.717-15.676,55.301-23.962,85.55-23.962s59.833,8.286,85.55,23.962L322.515,227.073z"/>
	<path style="fill:#80CB93;" d="M294.927,290.28c-12.217-5.76-25.315-8.68-38.927-8.68c-13.612,0-26.709,2.92-38.927,8.68
		l-15.595-33.079c17.133-8.077,35.477-12.172,54.522-12.172c19.045,0,37.389,4.095,54.522,12.172L294.927,290.28z"/>
</g>
<rect x="201.143" y="385.219" style="fill:#F8F8F9;" width="36.571" height="48.762"/>
<rect x="274.286" y="385.219" style="fill:#EDEDED;" width="36.571" height="48.762"/>
<g>
	<path style="fill:#6DC180;" d="M341.55,195.847c-25.717-15.676-55.301-23.962-85.55-23.962v36.571
		c23.534,0,46.534,6.438,66.515,18.616L341.55,195.847z"/>
	<path style="fill:#6DC180;" d="M294.927,290.28l15.595-33.079c-17.132-8.077-35.477-12.172-54.522-12.172V281.6
		C269.612,281.6,282.709,284.52,294.927,290.28z"/>
</g>
<path style="fill:#477E48;" d="M270.631,415.695h-29.26c-31.682-0.004-64.011-30.191-73.599-68.725l-0.122-0.521l-5.469-25.149
	c-3.845-22.127-15.72-45.079-32.583-62.969c-14.822-15.724-31.784-25.494-44.266-25.494v-36.571
	c22.892,0,48.727,13.48,70.879,36.982c21.554,22.867,36.821,52.509,41.93,81.393l5.179,23.74
	c5.908,23.335,24.92,40.742,38.053,40.743h29.255c13.129-0.001,32.143-17.408,38.05-40.743l5.179-23.74
	c5.109-28.883,20.378-58.526,41.93-81.393c22.153-23.502,47.987-36.982,70.879-36.982v36.571c-12.482,0-29.444,9.769-44.265,25.494
	c-16.863,17.891-28.738,40.842-32.584,62.969l-0.15,0.769l-5.441,24.9C334.64,385.504,302.31,415.692,270.631,415.695z"/>
<path style="fill:#417242;" d="M355.788,233.249c-21.554,22.867-36.821,52.509-41.93,81.393l-5.179,23.74
	c-5.908,23.334-24.921,40.741-38.05,40.742H256v36.571h14.631c31.679-0.004,64.009-30.191,73.596-68.725l5.441-24.9l0.15-0.769
	c3.845-22.127,15.721-45.079,32.584-62.969c14.821-15.724,31.783-25.494,44.265-25.494v-36.571
	C403.774,196.267,377.94,209.747,355.788,233.249z"/>
</svg>